<?xml version="1.0" encoding="UTF-8" standalone="no"?>
<!-- Created with Inkscape (http://www.inkscape.org/) -->

<svg
   xmlns:dc="http://purl.org/dc/elements/1.1/"
   xmlns:cc="http://creativecommons.org/ns#"
   xmlns:rdf="http://www.w3.org/1999/02/22-rdf-syntax-ns#"
   xmlns:svg="http://www.w3.org/2000/svg"
   xmlns="http://www.w3.org/2000/svg"
   xmlns:xlink="http://www.w3.org/1999/xlink"
   xmlns:sodipodi="http://sodipodi.sourceforge.net/DTD/sodipodi-0.dtd"
   xmlns:inkscape="http://www.inkscape.org/namespaces/inkscape"
   width="744.09448819"
   height="1052.3622047"
   id="svg2"
   version="1.1"
   inkscape:version="0.48.2 r9819"
   sodipodi:docname="invader.svg"
   inkscape:export-filename="/Users/justin/Dropbox/iphone/cu_teaching/designs/alien-hd.png"
   inkscape:export-xdpi="180"
   inkscape:export-ydpi="180">
  <defs
     id="defs4">
    <linearGradient
       id="linearGradient4019">
      <stop
         id="stop4021"
         offset="0"
         style="stop-color:#6688ff;stop-opacity:1;" />
      <stop
         id="stop4023"
         offset="1"
         style="stop-color:#000088;stop-opacity:1;" />
    </linearGradient>
    <linearGradient
       id="linearGradient3999">
      <stop
         style="stop-color:#ee4422;stop-opacity:1;"
         offset="0"
         id="stop4001" />
      <stop
         style="stop-color:#880000;stop-opacity:1;"
         offset="1"
         id="stop4003" />
    </linearGradient>
    <linearGradient
       id="linearGradient3833">
      <stop
         id="stop3835"
         offset="0"
         style="stop-color:#550066;stop-opacity:1;" />
      <stop
         id="stop3837"
         offset="1"
         style="stop-color:#880099;stop-opacity:1;" />
    </linearGradient>
    <linearGradient
       id="linearGradient4247">
      <stop
         id="stop4249"
         offset="0"
         style="stop-color:#221166;stop-opacity:1;" />
      <stop
         style="stop-color:#3366dd;stop-opacity:1;"
         offset="1"
         id="stop4251" />
    </linearGradient>
    <linearGradient
       id="linearGradient4239">
      <stop
         style="stop-color:#ff2299;stop-opacity:1;"
         offset="0"
         id="stop4241" />
      <stop
         style="stop-color:#2299ff;stop-opacity:1;"
         offset="1"
         id="stop4243" />
    </linearGradient>
    <linearGradient
       id="linearGradient3908">
      <stop
         style="stop-color:#440088;stop-opacity:1;"
         offset="0"
         id="stop3910" />
      <stop
         style="stop-color:#6600cc;stop-opacity:1;"
         offset="1"
         id="stop3912" />
    </linearGradient>
    <linearGradient
       id="linearGradient3900">
      <stop
         style="stop-color:#6600bb;stop-opacity:1;"
         offset="0"
         id="stop3902" />
      <stop
         style="stop-color:#9900bb;stop-opacity:1;"
         offset="1"
         id="stop3904" />
    </linearGradient>
    <linearGradient
       id="linearGradient3892">
      <stop
         style="stop-color:#440099;stop-opacity:1;"
         offset="0"
         id="stop3894" />
      <stop
         style="stop-color:#ff2299;stop-opacity:1;"
         offset="1"
         id="stop3896" />
    </linearGradient>
    <linearGradient
       id="linearGradient3843">
      <stop
         style="stop-color:#ff0000;stop-opacity:1;"
         offset="0"
         id="stop3845" />
      <stop
         id="stop3855"
         offset="1"
         style="stop-color:#ffaa33;stop-opacity:1;" />
    </linearGradient>
    <linearGradient
       inkscape:collect="always"
       xlink:href="#linearGradient3843"
       id="linearGradient3863"
       x1="30"
       y1="1028.3622"
       x2="30"
       y2="1008.3622"
       gradientUnits="userSpaceOnUse" />
    <linearGradient
       inkscape:collect="always"
       xlink:href="#linearGradient3892"
       id="linearGradient3898"
       x1="30"
       y1="1049.3622"
       x2="30"
       y2="1037.3622"
       gradientUnits="userSpaceOnUse"
       gradientTransform="matrix(1,0,0,1.2499986,0,-259.33905)" />
    <linearGradient
       inkscape:collect="always"
       xlink:href="#linearGradient3908"
       id="linearGradient3914"
       x1="30"
       y1="1052.3622"
       x2="30"
       y2="1051.3622"
       gradientUnits="userSpaceOnUse"
       gradientTransform="matrix(0.8,0,0,1,6,0)" />
    <linearGradient
       inkscape:collect="always"
       xlink:href="#linearGradient4239"
       id="linearGradient4245"
       x1="0"
       y1="981.375"
       x2="194"
       y2="981.375"
       gradientUnits="userSpaceOnUse" />
    <linearGradient
       inkscape:collect="always"
       xlink:href="#linearGradient4247"
       id="linearGradient4255"
       x1="30"
       y1="1082.3622"
       x2="30"
       y2="1057.3622"
       gradientUnits="userSpaceOnUse" />
    <linearGradient
       inkscape:collect="always"
       xlink:href="#linearGradient4247"
       id="linearGradient3813"
       x1="30"
       y1="1054.3622"
       x2="30"
       y2="1042.3622"
       gradientUnits="userSpaceOnUse"
       gradientTransform="translate(0,40)" />
    <linearGradient
       inkscape:collect="always"
       xlink:href="#linearGradient3892"
       id="linearGradient3818"
       gradientUnits="userSpaceOnUse"
       gradientTransform="matrix(1,0,0,0.66666447,12,345.78969)"
       x1="29"
       y1="1049.3622"
       x2="29"
       y2="1037.3622" />
    <linearGradient
       inkscape:collect="always"
       xlink:href="#linearGradient3833"
       id="linearGradient3831"
       gradientUnits="userSpaceOnUse"
       gradientTransform="matrix(1.5,0,0,0.4999969,-2.5,526.68431)"
       x1="29"
       y1="1049.3622"
       x2="29"
       y2="1037.3622" />
    <linearGradient
       inkscape:collect="always"
       xlink:href="#linearGradient3892"
       id="linearGradient3039"
       gradientUnits="userSpaceOnUse"
       gradientTransform="matrix(2,0,0,2.4999972,-13,-1556.0405)"
       x1="30"
       y1="1049.3622"
       x2="30"
       y2="1038.1622" />
    <linearGradient
       inkscape:collect="always"
       xlink:href="#linearGradient3999"
       id="linearGradient4005"
       x1="20"
       y1="1015.3622"
       x2="20"
       y2="1047.3622"
       gradientUnits="userSpaceOnUse"
       gradientTransform="translate(1,1)" />
    <linearGradient
       inkscape:collect="always"
       xlink:href="#linearGradient4019"
       id="linearGradient4025"
       gradientUnits="userSpaceOnUse"
       x1="20"
       y1="1015.3622"
       x2="20"
       y2="1049.3622" />
    <linearGradient
       inkscape:collect="always"
       xlink:href="#linearGradient4019"
       id="linearGradient3951"
       gradientUnits="userSpaceOnUse"
       x1="20"
       y1="1015.3622"
       x2="20"
       y2="1049.3622"
       gradientTransform="matrix(0.94117648,0,0,0.94117648,1.1764706,60.727188)" />
  </defs>
  <sodipodi:namedview
     id="base"
     pagecolor="#ffffff"
     bordercolor="#666666"
     borderopacity="1.0"
     inkscape:pageopacity="0.0"
     inkscape:pageshadow="2"
     inkscape:zoom="16.943221"
     inkscape:cx="34.094962"
     inkscape:cy="20.964272"
     inkscape:document-units="px"
     inkscape:current-layer="g4040"
     showgrid="true"
     inkscape:snap-global="true"
     inkscape:window-width="1610"
     inkscape:window-height="1006"
     inkscape:window-x="70"
     inkscape:window-y="0"
     inkscape:window-maximized="0">
    <inkscape:grid
       type="xygrid"
       id="grid3050" />
  </sodipodi:namedview>
  <metadata
     id="metadata7">
    <rdf:RDF>
      <cc:Work
         rdf:about="">
        <dc:format>image/svg+xml</dc:format>
        <dc:type
           rdf:resource="http://purl.org/dc/dcmitype/StillImage" />
        <dc:title></dc:title>
      </cc:Work>
    </rdf:RDF>
  </metadata>
  <g
     inkscape:groupmode="layer"
     id="layer3"
     inkscape:label="alienbg"
     style="display:none">
    <rect
       style="fill:#000000;fill-opacity:1;fill-rule:nonzero;stroke:none"
       id="rect4027"
       width="46"
       height="39"
       x="7"
       y="1002.3622"
       inkscape:export-filename="/Users/justin/Dropbox/iphone/cu_teaching/img-hd/alien1.png"
       inkscape:export-xdpi="180"
       inkscape:export-ydpi="180" />
  </g>
  <g
     inkscape:label="alien1"
     inkscape:groupmode="layer"
     id="layer1"
     style="display:none">
    <rect
       style="fill:#d40000;fill-opacity:1;stroke:none"
       id="rect3052"
       width="8"
       height="4"
       x="20"
       y="1032.3622" />
    <rect
       y="1032.3622"
       x="32"
       height="4"
       width="8"
       id="rect3822"
       style="fill:#d40000;fill-opacity:1;stroke:none" />
    <rect
       y="1028.3622"
       x="16"
       height="4"
       width="4"
       id="rect3824"
       style="fill:#ff0000;fill-opacity:1;stroke:none" />
    <rect
       style="fill:#ff0000;fill-opacity:1;stroke:none"
       id="rect3826"
       width="4"
       height="4"
       x="40"
       y="1028.3622" />
    <rect
       y="1016.3622"
       x="44"
       height="8"
       width="4"
       id="rect3828"
       style="fill:#d40000;fill-opacity:1;stroke:none" />
    <rect
       style="fill:#aa0000;fill-opacity:1;stroke:none"
       id="rect3830"
       width="4"
       height="12"
       x="48"
       y="1020.3622" />
    <rect
       style="fill:#d40000;fill-opacity:1;stroke:none"
       id="rect3832"
       width="4"
       height="8"
       x="12"
       y="1016.3622" />
    <rect
       y="1020.3622"
       x="8"
       height="12"
       width="4"
       id="rect3834"
       style="fill:#aa0000;fill-opacity:1;stroke:none" />
    <rect
       style="fill:#ff0000;fill-opacity:1;stroke:none"
       id="rect3836"
       width="4"
       height="4"
       x="16"
       y="1004.3622" />
    <rect
       y="1004.3622"
       x="40"
       height="4"
       width="4"
       id="rect3838"
       style="fill:#ff0000;fill-opacity:1;stroke:none" />
    <path
       style="fill:url(#linearGradient3863);fill-opacity:1;fill-rule:nonzero;stroke:none"
       d="m 36,1016.3622 0,4 4,0 0,-4 z m 0,-4 0,-4 4,0 0,4 4,0 0,16 -28,0 0,-16 4,0 0,-4 4,0 0,4 z m -16,4 0,4 4,0 0,-4 z"
       id="rect3840"
       inkscape:connector-curvature="0"
       sodipodi:nodetypes="ccccccccccccccccccccccc" />
  </g>
  <g
     style="display:none"
     id="g3809"
     inkscape:groupmode="layer"
     inkscape:label="alien2">
    <rect
       y="1013.2054"
       x="198.96396"
       height="4"
       width="8"
       id="rect3811"
       style="fill:#d40000;fill-opacity:1;stroke:none"
       inkscape:transform-center-x="-3.5919225"
       inkscape:transform-center-y="2.6642667"
       transform="matrix(0.98480775,0.17364817,-0.17364817,0.98480775,0,0)" />
    <rect
       style="fill:#d40000;fill-opacity:1;stroke:none"
       id="rect3813"
       width="8"
       height="4"
       x="-147.8755"
       y="1023.6241"
       inkscape:transform-center-x="3.5919655"
       inkscape:transform-center-y="2.6640822"
       transform="matrix(0.98480775,-0.17364817,0.17364817,0.98480775,0,0)" />
    <rect
       style="fill:#ff0000;fill-opacity:1;stroke:none"
       id="rect3815"
       width="4"
       height="4"
       x="16"
       y="1028.3622" />
    <rect
       y="1028.3622"
       x="40"
       height="4"
       width="4"
       id="rect3817"
       style="fill:#ff0000;fill-opacity:1;stroke:none" />
    <rect
       style="fill:#d40000;fill-opacity:1;stroke:none"
       id="rect3819"
       width="4"
       height="8"
       x="44"
       y="1016.3622" />
    <rect
       y="1018.3622"
       x="48"
       height="12"
       width="4"
       id="rect3821"
       style="fill:#aa0000;fill-opacity:1;stroke:none" />
    <rect
       y="1016.3622"
       x="12"
       height="8"
       width="4"
       id="rect3823"
       style="fill:#d40000;fill-opacity:1;stroke:none" />
    <rect
       style="fill:#aa0000;fill-opacity:1;stroke:none"
       id="rect3825"
       width="4"
       height="12"
       x="8"
       y="1018.3622" />
    <rect
       y="985.56989"
       x="190.79642"
       height="4"
       width="4"
       id="rect3827"
       style="fill:#ff0000;fill-opacity:1;stroke:none"
       inkscape:transform-center-x="1.6222974"
       inkscape:transform-center-y="-2.3169609"
       transform="matrix(0.98480775,0.17364817,-0.17364817,0.98480775,0,0)" />
    <rect
       style="fill:#ff0000;fill-opacity:1;stroke:none"
       id="rect3829"
       width="4"
       height="4"
       x="-135.70795"
       y="995.98883"
       inkscape:transform-center-x="-1.6223119"
       inkscape:transform-center-y="-2.3169076"
       transform="matrix(0.98480775,-0.17364817,0.17364817,0.98480775,0,0)" />
    <path
       sodipodi:nodetypes="ccccccccccccccccccccccc"
       inkscape:connector-curvature="0"
       id="path3831"
       d="m 36,1016.3622 0,4 4,0 0,-4 z m 0,-4 0,-4 4,0 0,4 4,0 0,16 -28,0 0,-16 4,0 0,-4 4,0 0,4 z m -16,4 0,4 4,0 0,-4 z"
       style="fill:url(#linearGradient3863);fill-opacity:1;fill-rule:nonzero;stroke:none" />
  </g>
  <g
     inkscape:label="alien3"
     inkscape:groupmode="layer"
     id="g3833"
     style="display:none">
    <rect
       transform="matrix(0.93969262,0.34202014,-0.34202014,0.93969262,0,0)"
       inkscape:transform-center-y="3.2474936"
       inkscape:transform-center-x="-3.074715"
       style="fill:#d40000;fill-opacity:1;stroke:none"
       id="rect3835"
       width="8"
       height="4"
       x="371.88251"
       y="963.26276" />
    <rect
       transform="matrix(0.93969262,-0.34202014,0.34202014,0.93969262,0,0)"
       inkscape:transform-center-y="3.2473032"
       inkscape:transform-center-x="3.0748127"
       y="983.78375"
       x="-323.50098"
       height="4"
       width="8"
       id="rect3837"
       style="fill:#d40000;fill-opacity:1;stroke:none" />
    <rect
       y="1028.3622"
       x="16"
       height="4"
       width="4"
       id="rect3839"
       style="fill:#ff0000;fill-opacity:1;stroke:none" />
    <rect
       style="fill:#ff0000;fill-opacity:1;stroke:none"
       id="rect3841"
       width="4"
       height="4"
       x="40"
       y="1028.3622" />
    <rect
       y="1016.3622"
       x="44"
       height="8"
       width="4"
       id="rect3843"
       style="fill:#d40000;fill-opacity:1;stroke:none" />
    <rect
       style="fill:#aa0000;fill-opacity:1;stroke:none"
       id="rect3845"
       width="4"
       height="12"
       x="48"
       y="1016.3622" />
    <rect
       style="fill:#d40000;fill-opacity:1;stroke:none"
       id="rect3847"
       width="4"
       height="8"
       x="12"
       y="1016.3622" />
    <rect
       y="1016.3622"
       x="8"
       height="12"
       width="4"
       id="rect3849"
       style="fill:#aa0000;fill-opacity:1;stroke:none" />
    <rect
       transform="matrix(0.93969262,0.34202014,-0.34202014,0.93969262,0,0)"
       inkscape:transform-center-y="-2.5634388"
       inkscape:transform-center-x="1.195326"
       style="fill:#ff0000;fill-opacity:1;stroke:none"
       id="rect3851"
       width="4"
       height="4"
       x="359.67404"
       y="936.71008" />
    <rect
       transform="matrix(0.93969262,-0.34202014,0.34202014,0.93969262,0,0)"
       inkscape:transform-center-y="-2.5634104"
       inkscape:transform-center-x="-1.1953407"
       y="957.23132"
       x="-307.29248"
       height="4"
       width="4"
       id="rect3853"
       style="fill:#ff0000;fill-opacity:1;stroke:none" />
    <path
       style="fill:url(#linearGradient3863);fill-opacity:1;fill-rule:nonzero;stroke:none"
       d="m 36,1016.3622 0,4 4,0 0,-4 z m 0,-4 0,-4 4,0 0,4 4,0 0,16 -28,0 0,-16 4,0 0,-4 4,0 0,4 z m -16,4 0,4 4,0 0,-4 z"
       id="path3855"
       inkscape:connector-curvature="0"
       sodipodi:nodetypes="ccccccccccccccccccccccc" />
  </g>
  <g
     style="display:none"
     id="g3857"
     inkscape:groupmode="layer"
     inkscape:label="alien4">
    <rect
       y="884.05188"
       x="533.50159"
       height="4"
       width="8"
       id="rect3859"
       style="fill:#d40000;fill-opacity:1;stroke:none"
       inkscape:transform-center-x="-2.4640922"
       inkscape:transform-center-y="3.7320533"
       transform="matrix(0.86602541,0.5,-0.5,0.86602541,0,0)" />
    <rect
       style="fill:#d40000;fill-opacity:1;stroke:none"
       id="rect3861"
       width="8"
       height="4"
       x="-489.5401"
       y="914.0517"
       inkscape:transform-center-x="2.4642158"
       inkscape:transform-center-y="3.7319137"
       transform="matrix(0.86602541,-0.5,0.5,0.86602541,0,0)" />
    <rect
       style="fill:#ff0000;fill-opacity:1;stroke:none"
       id="rect3863"
       width="4"
       height="4"
       x="16"
       y="1028.3622" />
    <rect
       y="1028.3622"
       x="40"
       height="4"
       width="4"
       id="rect3865"
       style="fill:#ff0000;fill-opacity:1;stroke:none" />
    <rect
       style="fill:#d40000;fill-opacity:1;stroke:none"
       id="rect3867"
       width="4"
       height="8"
       x="44"
       y="1016.3622" />
    <rect
       y="1014.3622"
       x="48"
       height="12"
       width="4"
       id="rect3869"
       style="fill:#aa0000;fill-opacity:1;stroke:none" />
    <rect
       y="1016.3622"
       x="12"
       height="8"
       width="4"
       id="rect3871"
       style="fill:#d40000;fill-opacity:1;stroke:none" />
    <rect
       style="fill:#aa0000;fill-opacity:1;stroke:none"
       id="rect3873"
       width="4"
       height="12"
       x="8"
       y="1014.3622" />
    <rect
       y="859.26727"
       x="517.50159"
       height="4"
       width="4"
       id="rect3875"
       style="fill:#ff0000;fill-opacity:1;stroke:none"
       inkscape:transform-center-x="0.73206154"
       inkscape:transform-center-y="-2.7320458"
       transform="matrix(0.86602541,0.5,-0.5,0.86602541,0,0)" />
    <rect
       style="fill:#ff0000;fill-opacity:1;stroke:none"
       id="rect3877"
       width="4"
       height="4"
       x="-469.54007"
       y="889.26727"
       inkscape:transform-center-x="-0.73205609"
       inkscape:transform-center-y="-2.7320423"
       transform="matrix(0.86602541,-0.5,0.5,0.86602541,0,0)" />
    <path
       sodipodi:nodetypes="ccccccccccccccccccccccc"
       inkscape:connector-curvature="0"
       id="path3879"
       d="m 36,1016.3622 0,4 4,0 0,-4 z m 0,-4 0,-4 4,0 0,4 4,0 0,16 -28,0 0,-16 4,0 0,-4 4,0 0,4 z m -16,4 0,4 4,0 0,-4 z"
       style="fill:url(#linearGradient3863);fill-opacity:1;fill-rule:nonzero;stroke:none" />
  </g>
  <g
     inkscape:label="alien5"
     inkscape:groupmode="layer"
     id="g3881"
     style="display:none">
    <rect
       transform="matrix(0.76604445,0.6427876,-0.6427876,0.76604445,0,0)"
       inkscape:transform-center-y="4.1032409"
       inkscape:transform-center-x="-1.7786304"
       style="fill:#d40000;fill-opacity:1;stroke:none"
       id="rect3883"
       width="8"
       height="4"
       x="678.91052"
       y="777.97955" />
    <rect
       transform="matrix(0.76604445,-0.6427876,0.6427876,0.76604445,0,0)"
       inkscape:transform-center-y="4.1031643"
       inkscape:transform-center-x="1.7787216"
       y="816.54669"
       x="-640.94788"
       height="4"
       width="8"
       id="rect3886"
       style="fill:#d40000;fill-opacity:1;stroke:none" />
    <rect
       y="1028.3622"
       x="16"
       height="4"
       width="4"
       id="rect3888"
       style="fill:#ff0000;fill-opacity:1;stroke:none" />
    <rect
       style="fill:#ff0000;fill-opacity:1;stroke:none"
       id="rect3890"
       width="4"
       height="4"
       x="40"
       y="1028.3622" />
    <rect
       y="1016.3622"
       x="44"
       height="8"
       width="4"
       id="rect3892"
       style="fill:#d40000;fill-opacity:1;stroke:none" />
    <rect
       style="fill:#aa0000;fill-opacity:1;stroke:none"
       id="rect3894"
       width="4"
       height="12"
       x="48"
       y="1012.3622" />
    <rect
       style="fill:#d40000;fill-opacity:1;stroke:none"
       id="rect3896"
       width="4"
       height="8"
       x="12"
       y="1016.3622" />
    <rect
       y="1012.3622"
       x="8"
       height="12"
       width="4"
       id="rect3898"
       style="fill:#aa0000;fill-opacity:1;stroke:none" />
    <rect
       transform="matrix(0.76604445,0.6427876,-0.6427876,0.76604445,0,0)"
       inkscape:transform-center-y="-2.81769"
       inkscape:transform-center-x="0.24651259"
       style="fill:#ff0000;fill-opacity:1;stroke:none"
       id="rect3900"
       width="4"
       height="4"
       x="659.48358"
       y="755.59448" />
    <rect
       transform="matrix(0.76604445,-0.6427876,0.6427876,0.76604445,0,0)"
       inkscape:transform-center-y="-2.8176733"
       inkscape:transform-center-x="-0.2465"
       y="794.16174"
       x="-617.52094"
       height="4"
       width="4"
       id="rect3902"
       style="fill:#ff0000;fill-opacity:1;stroke:none" />
    <path
       style="fill:url(#linearGradient3863);fill-opacity:1;fill-rule:nonzero;stroke:none"
       d="m 36,1016.3622 0,4 4,0 0,-4 z m 0,-4 0,-4 4,0 0,4 4,0 0,16 -28,0 0,-16 4,0 0,-4 4,0 0,4 z m -16,4 0,4 4,0 0,-4 z"
       id="path3904"
       inkscape:connector-curvature="0"
       sodipodi:nodetypes="ccccccccccccccccccccccc" />
  </g>
  <g
     style="display:none"
     id="g3906"
     inkscape:groupmode="layer"
     inkscape:label="alien6">
    <rect
       y="648.26874"
       x="803.6911"
       height="4"
       width="8"
       id="rect3908"
       style="fill:#d40000;fill-opacity:1;stroke:none"
       inkscape:transform-center-x="-1.0390958"
       inkscape:transform-center-y="4.3497808"
       transform="matrix(0.64278762,0.76604443,-0.76604443,0.64278762,0,0)" />
    <rect
       style="fill:#d40000;fill-opacity:1;stroke:none"
       id="rect3910"
       width="8"
       height="4"
       x="-773.12384"
       y="694.23132"
       inkscape:transform-center-x="1.0391555"
       inkscape:transform-center-y="4.3497265"
       transform="matrix(0.64278762,-0.76604443,0.76604443,0.64278762,0,0)" />
    <rect
       style="fill:#ff0000;fill-opacity:1;stroke:none"
       id="rect3912"
       width="4"
       height="4"
       x="16"
       y="1028.3622" />
    <rect
       y="1028.3622"
       x="40"
       height="4"
       width="4"
       id="rect3914"
       style="fill:#ff0000;fill-opacity:1;stroke:none" />
    <rect
       style="fill:#d40000;fill-opacity:1;stroke:none"
       id="rect3916"
       width="4"
       height="8"
       x="44"
       y="1016.3622" />
    <rect
       y="1010.3622"
       x="48"
       height="12"
       width="4"
       id="rect3918"
       style="fill:#aa0000;fill-opacity:1;stroke:none" />
    <rect
       y="1016.3622"
       x="12"
       height="8"
       width="4"
       id="rect3920"
       style="fill:#d40000;fill-opacity:1;stroke:none" />
    <rect
       style="fill:#aa0000;fill-opacity:1;stroke:none"
       id="rect3922"
       width="4"
       height="12"
       x="8"
       y="1010.3622" />
    <rect
       y="628.8418"
       x="781.30597"
       height="4"
       width="4"
       id="rect3924"
       style="fill:#ff0000;fill-opacity:1;stroke:none"
       inkscape:transform-center-x="-0.24653512"
       inkscape:transform-center-y="-2.8177105"
       transform="matrix(0.64278762,0.76604443,-0.76604443,0.64278762,0,0)" />
    <rect
       style="fill:#ff0000;fill-opacity:1;stroke:none"
       id="rect3926"
       width="4"
       height="4"
       x="-746.73877"
       y="674.8045"
       inkscape:transform-center-x="0.24654034"
       inkscape:transform-center-y="-2.8176398"
       transform="matrix(0.64278762,-0.76604443,0.76604443,0.64278762,0,0)" />
    <path
       sodipodi:nodetypes="ccccccccccccccccccccccc"
       inkscape:connector-curvature="0"
       id="path3928"
       d="m 36,1016.3622 0,4 4,0 0,-4 z m 0,-4 0,-4 4,0 0,4 4,0 0,16 -28,0 0,-16 4,0 0,-4 4,0 0,4 z m -16,4 0,4 4,0 0,-4 z"
       style="fill:url(#linearGradient3863);fill-opacity:1;fill-rule:nonzero;stroke:none" />
  </g>
  <g
     inkscape:label="alien7"
     inkscape:groupmode="layer"
     id="g3930"
     style="display:none">
    <rect
       transform="matrix(0.50000001,0.8660254,-0.8660254,0.50000001,0,0)"
       inkscape:transform-center-y="4.4641655"
       inkscape:transform-center-x="-0.26798164"
       style="fill:#d40000;fill-opacity:1;stroke:none"
       id="rect3932"
       width="8"
       height="4"
       x="904.05194"
       y="498.8606" />
    <rect
       transform="matrix(0.50000001,-0.8660254,0.8660254,0.50000001,0,0)"
       inkscape:transform-center-y="4.4640642"
       inkscape:transform-center-x="0.26803629"
       y="550.82202"
       x="-882.05188"
       height="4"
       width="8"
       id="rect3934"
       style="fill:#d40000;fill-opacity:1;stroke:none" />
    <rect
       y="1028.3622"
       x="16"
       height="4"
       width="4"
       id="rect3936"
       style="fill:#ff0000;fill-opacity:1;stroke:none" />
    <rect
       style="fill:#ff0000;fill-opacity:1;stroke:none"
       id="rect3938"
       width="4"
       height="4"
       x="40"
       y="1028.3622" />
    <rect
       y="1016.3622"
       x="44"
       height="8"
       width="4"
       id="rect3940"
       style="fill:#d40000;fill-opacity:1;stroke:none" />
    <rect
       style="fill:#aa0000;fill-opacity:1;stroke:none"
       id="rect3942"
       width="4"
       height="12"
       x="48"
       y="1008.3622" />
    <rect
       style="fill:#d40000;fill-opacity:1;stroke:none"
       id="rect3944"
       width="4"
       height="8"
       x="12"
       y="1016.3622" />
    <rect
       y="1008.3622"
       x="8"
       height="12"
       width="4"
       id="rect3946"
       style="fill:#aa0000;fill-opacity:1;stroke:none" />
    <rect
       transform="matrix(0.50000001,0.8660254,-0.8660254,0.50000001,0,0)"
       inkscape:transform-center-y="-2.7321053"
       inkscape:transform-center-x="-0.73204999"
       style="fill:#ff0000;fill-opacity:1;stroke:none"
       id="rect3948"
       width="4"
       height="4"
       x="879.26721"
       y="482.86057" />
    <rect
       transform="matrix(0.50000001,-0.8660254,0.8660254,0.50000001,0,0)"
       inkscape:transform-center-y="-2.7320249"
       inkscape:transform-center-x="0.73203333"
       y="534.82214"
       x="-853.26727"
       height="4"
       width="4"
       id="rect3950"
       style="fill:#ff0000;fill-opacity:1;stroke:none" />
    <path
       style="fill:url(#linearGradient3863);fill-opacity:1;fill-rule:nonzero;stroke:none"
       d="m 36,1016.3622 0,4 4,0 0,-4 z m 0,-4 0,-4 4,0 0,4 4,0 0,16 -28,0 0,-16 4,0 0,-4 4,0 0,4 z m -16,4 0,4 4,0 0,-4 z"
       id="path3952"
       inkscape:connector-curvature="0"
       sodipodi:nodetypes="ccccccccccccccccccccccc" />
  </g>
  <g
     style="display:none"
     id="g3954"
     inkscape:groupmode="layer"
     inkscape:label="alien8">
    <rect
       y="334.29483"
       x="976.9436"
       height="4"
       width="8"
       id="rect3956"
       style="fill:#d40000;fill-opacity:1;stroke:none"
       inkscape:transform-center-x="0.51129194"
       inkscape:transform-center-y="4.4428905"
       transform="matrix(0.34202015,0.93969262,-0.93969262,0.34202015,0,0)" />
    <rect
       style="fill:#d40000;fill-opacity:1;stroke:none"
       id="rect3958"
       width="8"
       height="4"
       x="-964.4223"
       y="390.67627"
       inkscape:transform-center-x="-0.5112128"
       inkscape:transform-center-y="4.4427635"
       transform="matrix(0.34202015,-0.93969262,0.93969262,0.34202015,0,0)" />
    <rect
       style="fill:#ff0000;fill-opacity:1;stroke:none"
       id="rect3960"
       width="4"
       height="4"
       x="16"
       y="1028.3622" />
    <rect
       y="1028.3622"
       x="40"
       height="4"
       width="4"
       id="rect3962"
       style="fill:#ff0000;fill-opacity:1;stroke:none" />
    <rect
       style="fill:#d40000;fill-opacity:1;stroke:none"
       id="rect3964"
       width="4"
       height="8"
       x="44"
       y="1016.3622" />
    <rect
       y="1006.3622"
       x="48"
       height="12"
       width="4"
       id="rect3966"
       style="fill:#aa0000;fill-opacity:1;stroke:none" />
    <rect
       y="1016.3622"
       x="12"
       height="8"
       width="4"
       id="rect3968"
       style="fill:#d40000;fill-opacity:1;stroke:none" />
    <rect
       style="fill:#aa0000;fill-opacity:1;stroke:none"
       id="rect3970"
       width="4"
       height="12"
       x="8"
       y="1006.3622" />
    <rect
       y="322.0863"
       x="950.39087"
       height="4"
       width="4"
       id="rect3972"
       style="fill:#ff0000;fill-opacity:1;stroke:none"
       inkscape:transform-center-x="-1.1953602"
       inkscape:transform-center-y="-2.5634652"
       transform="matrix(0.34202015,0.93969262,-0.93969262,0.34202015,0,0)" />
    <rect
       style="fill:#ff0000;fill-opacity:1;stroke:none"
       id="rect3974"
       width="4"
       height="4"
       x="-933.86969"
       y="378.46793"
       inkscape:transform-center-x="1.1953088"
       inkscape:transform-center-y="-2.563415"
       transform="matrix(0.34202015,-0.93969262,0.93969262,0.34202015,0,0)" />
    <path
       sodipodi:nodetypes="ccccccccccccccccccccccc"
       inkscape:connector-curvature="0"
       id="path3976"
       d="m 36,1016.3622 0,4 4,0 0,-4 z m 0,-4 0,-4 4,0 0,4 4,0 0,16 -28,0 0,-16 4,0 0,-4 4,0 0,4 z m -16,4 0,4 4,0 0,-4 z"
       style="fill:url(#linearGradient3863);fill-opacity:1;fill-rule:nonzero;stroke:none" />
  </g>
  <g
     inkscape:label="alien9"
     inkscape:groupmode="layer"
     id="g3978"
     style="display:none">
    <rect
       transform="matrix(0.17364818,0.98480775,-0.98480775,0.17364818,0,0)"
       inkscape:transform-center-y="4.28659"
       inkscape:transform-center-x="1.2750381"
       style="fill:#d40000;fill-opacity:1;stroke:none"
       id="rect3980"
       width="8"
       height="4"
       x="1020.1513"
       y="159.57169" />
    <rect
       transform="matrix(0.17364818,-0.98480775,0.98480775,0.17364818,0,0)"
       inkscape:transform-center-y="4.2865736"
       inkscape:transform-center-x="-1.2749068"
       y="218.66002"
       x="-1017.7324"
       height="4"
       width="8"
       id="rect3982"
       style="fill:#d40000;fill-opacity:1;stroke:none" />
    <rect
       y="1028.3622"
       x="16"
       height="4"
       width="4"
       id="rect3984"
       style="fill:#ff0000;fill-opacity:1;stroke:none" />
    <rect
       style="fill:#ff0000;fill-opacity:1;stroke:none"
       id="rect3986"
       width="4"
       height="4"
       x="40"
       y="1028.3622" />
    <rect
       y="1016.3622"
       x="44"
       height="8"
       width="4"
       id="rect3988"
       style="fill:#d40000;fill-opacity:1;stroke:none" />
    <rect
       style="fill:#aa0000;fill-opacity:1;stroke:none"
       id="rect3990"
       width="4"
       height="12"
       x="48"
       y="1004.3622" />
    <rect
       style="fill:#d40000;fill-opacity:1;stroke:none"
       id="rect3992"
       width="4"
       height="8"
       x="12"
       y="1016.3622" />
    <rect
       y="1004.3622"
       x="8"
       height="12"
       width="4"
       id="rect3994"
       style="fill:#aa0000;fill-opacity:1;stroke:none" />
    <rect
       transform="matrix(0.17364818,0.98480775,-0.98480775,0.17364818,0,0)"
       inkscape:transform-center-y="-2.3169673"
       inkscape:transform-center-x="-1.6223301"
       style="fill:#ff0000;fill-opacity:1;stroke:none"
       id="rect3996"
       width="4"
       height="4"
       x="992.51581"
       y="151.40408" />
    <rect
       transform="matrix(0.17364818,-0.98480775,0.98480775,0.17364818,0,0)"
       inkscape:transform-center-y="-2.3168893"
       inkscape:transform-center-x="1.6222764"
       y="210.49261"
       x="-986.09698"
       height="4"
       width="4"
       id="rect3998"
       style="fill:#ff0000;fill-opacity:1;stroke:none" />
    <path
       style="fill:url(#linearGradient3863);fill-opacity:1;fill-rule:nonzero;stroke:none"
       d="m 36,1016.3622 0,4 4,0 0,-4 z m 0,-4 0,-4 4,0 0,4 4,0 0,16 -28,0 0,-16 4,0 0,-4 4,0 0,4 z m -16,4 0,4 4,0 0,-4 z"
       id="path4000"
       inkscape:connector-curvature="0"
       sodipodi:nodetypes="ccccccccccccccccccccccc" />
  </g>
  <g
     style="display:none"
     id="g4002"
     inkscape:groupmode="layer"
     inkscape:label="alien10">
    <rect
       y="-19.999971"
       x="1032.3622"
       height="4"
       width="8"
       id="rect4004"
       style="fill:#d40000;fill-opacity:1;stroke:none"
       inkscape:transform-center-x="2.0000287"
       inkscape:transform-center-y="4"
       transform="matrix(0,1,-1,0,0,0)" />
    <rect
       style="fill:#d40000;fill-opacity:1;stroke:none"
       id="rect4006"
       width="8"
       height="4"
       x="-1040.3623"
       y="39.999897"
       inkscape:transform-center-x="-1.9998971"
       inkscape:transform-center-y="4.0001221"
       transform="matrix(0,-1,1,0,0,0)" />
    <rect
       style="fill:#ff0000;fill-opacity:1;stroke:none"
       id="rect4008"
       width="4"
       height="4"
       x="16"
       y="1028.3622" />
    <rect
       y="1028.3622"
       x="40"
       height="4"
       width="4"
       id="rect4010"
       style="fill:#ff0000;fill-opacity:1;stroke:none" />
    <rect
       style="fill:#d40000;fill-opacity:1;stroke:none"
       id="rect4012"
       width="4"
       height="8"
       x="44"
       y="1016.3622" />
    <rect
       y="997.25647"
       x="-129.21867"
       height="12"
       width="4"
       id="rect4014"
       style="fill:#aa0000;fill-opacity:1;stroke:none"
       inkscape:transform-center-x="-0.92772423"
       inkscape:transform-center-y="-6.2561448"
       transform="matrix(0.98480775,-0.17364818,0.17364818,0.98480775,0,0)" />
    <rect
       y="1016.3622"
       x="12"
       height="8"
       width="4"
       id="rect4016"
       style="fill:#d40000;fill-opacity:1;stroke:none" />
    <rect
       style="fill:#aa0000;fill-opacity:1;stroke:none"
       id="rect4018"
       width="4"
       height="12"
       x="184.30713"
       y="986.83759"
       inkscape:transform-center-x="0.92773532"
       inkscape:transform-center-y="-6.2561401"
       transform="matrix(0.98480775,0.17364818,-0.17364818,0.98480775,0,0)" />
    <rect
       y="-24.000017"
       x="1004.3621"
       height="4"
       width="4"
       id="rect4020"
       style="fill:#ff0000;fill-opacity:1;stroke:none"
       inkscape:transform-center-x="-2.0000173"
       inkscape:transform-center-y="-2.0000609"
       transform="matrix(0,1,-1,0,0,0)" />
    <rect
       style="fill:#ff0000;fill-opacity:1;stroke:none"
       id="rect4022"
       width="4"
       height="4"
       x="-1008.3622"
       y="36.00005"
       inkscape:transform-center-x="1.9999503"
       inkscape:transform-center-y="-1.9999999"
       transform="matrix(0,-1,1,0,0,0)" />
    <path
       sodipodi:nodetypes="ccccccccccccccccccccccc"
       inkscape:connector-curvature="0"
       id="path4024"
       d="m 36,1016.3622 0,4 4,0 0,-4 z m 0,-4 0,-4 4,0 0,4 4,0 0,16 -28,0 0,-16 4,0 0,-4 4,0 0,4 z m -16,4 0,4 4,0 0,-4 z"
       style="fill:url(#linearGradient3863);fill-opacity:1;fill-rule:nonzero;stroke:none" />
  </g>
  <g
     inkscape:groupmode="layer"
     id="layer2"
     inkscape:label="missle"
     style="display:none">
    <path
       style="fill:url(#linearGradient3898);fill-opacity:1;fill-rule:nonzero;stroke:none"
       d="m 30,1037.3622 c 2,3 2,8 2,9 0,0 2,2 1,5 -0.316226,0.9487 -2,0 -2,0 l -2,0 c 0,0 -2,1 -2,0 -1,-3 1,-5 1,-5 0,-1 0,-6 2,-9 z"
       id="rect3885"
       inkscape:connector-curvature="0"
       sodipodi:nodetypes="cssccccc" />
  </g>
  <g
     style="display:none"
     inkscape:label="missle2"
     id="g4033"
     inkscape:groupmode="layer">
    <path
       style="fill:url(#linearGradient3039);fill-opacity:1;fill-rule:nonzero;stroke:none"
       d="m 52,1039.3622 0,20 -2,0 0,4 2,0 0,4 -10,0 0,-4 2,0 0,-4 -2,0 0,-20 z"
       id="path4037"
       inkscape:connector-curvature="0"
       sodipodi:nodetypes="ccccccccccccc"
       inkscape:export-filename="/Users/justin/Documents/justin/iphone/cocos2d_simple_game/designs/img-hd/missile.png"
       inkscape:export-xdpi="90"
       inkscape:export-ydpi="90" />
  </g>
  <g
     inkscape:groupmode="layer"
     id="layer5"
     inkscape:label="player1"
     style="display:none">
    <path
       style="fill:url(#linearGradient3813);fill-opacity:1;fill-rule:nonzero;stroke:none"
       d="m 5,1082.3622 50,0 0,12 -4,0 0,-4 -42,0 0,4 -4,0 z"
       id="rect3027"
       inkscape:connector-curvature="0"
       sodipodi:nodetypes="ccccccccc" />
    <rect
       style="fill:#4477ee;fill-opacity:1;stroke:none;display:inline"
       id="rect3030"
       width="20"
       height="4"
       x="20"
       y="1078.3622" />
    <rect
       y="1074.3622"
       x="28"
       height="4"
       width="4"
       id="rect3035"
       style="fill:#6699ff;fill-opacity:1;stroke:none;display:inline" />
    <rect
       y="1090.3622"
       x="13"
       height="4"
       width="34"
       id="rect3805"
       style="fill:#110066;fill-opacity:1;stroke:none;display:inline" />
  </g>
  <g
     inkscape:groupmode="layer"
     id="layer4"
     inkscape:label="title"
     style="display:none">
    <path
       style="fill:url(#linearGradient4245);fill-opacity:1;fill-rule:nonzero;stroke:none"
       d="m 0,967.375 0,4 4,0 0,20 -4,0 0,4 12,0 0,-4 -4,0 0,-20 4,0 0,-4 -12,0 z m 18,0 0,28 4,0 0,-24 4,0 0,20 0,4 8,0 4,0 0,-28 -4,0 0,24 -4,0 0,-20 0,-4 -8,0 -4,0 z m 26,0 0,20 4,0 0,-20 -4,0 z m 4,20 0,4 4,0 0,-4 -4,0 z m 4,4 0,4 4,0 0,-4 -4,0 z m 4,0 4,0 0,-4 -4,0 0,4 z m 4,-4 4,0 0,-20 -4,0 0,20 z m 14,-20 0,4 12,0 0,-4 -12,0 z m 12,4 0,12 -12,0 0,-12 -4,0 0,24 4,0 0,-8 12,0 0,8 4,0 0,-24 -4,0 z m 10,-4 0,28 4,0 12,0 0,-4 -12,0 0,-20 12,0 0,-4 -12,0 -4,0 z m 16,4 0,20 4,0 0,-20 -4,0 z m 10,-4 0,28 4,0 16,0 0,-4 -16,0 0,-8 8,0 0,-4 -8,0 0,-8 16,0 0,-4 -16,0 -4,0 z m 26,0 0,28 4,0 0,-12 12,0 0,-4 -12,0 0,-8 12,0 0,-4 -12,0 -4,0 z m 16,4 0,8 4,0 0,-8 -4,0 z m 0,12 0,12 4,0 0,-12 -4,0 z m 10,-16 0,12 4,0 0,-8 12,0 0,4 4,0 0,-8 -4,0 -12,0 -4,0 z m 4,12 0,4 12,0 0,-4 -12,0 z m 12,4 0,8 -12,0 0,-4 -4,0 0,8 4,0 12,0 4,0 0,-12 -4,0 z"
       id="rect4029"
       inkscape:connector-curvature="0" />
  </g>
  <g
     inkscape:groupmode="layer"
     id="layer6"
     inkscape:label="square"
     style="display:none">
    <rect
       style="fill:#ff2299;fill-opacity:1;fill-rule:nonzero;stroke:none"
       id="rect4042"
       width="25"
       height="25"
       x="10"
       y="962.36218" />
    <rect
       y="962.36218"
       x="35"
       height="25"
       width="25"
       id="rect4044"
       style="fill:#2299ff;fill-opacity:1;fill-rule:nonzero;stroke:none" />
    <rect
       style="fill:#440088;fill-opacity:1;fill-rule:nonzero;stroke:none"
       id="rect4046"
       width="25"
       height="25"
       x="10"
       y="987.36218" />
    <rect
       y="987.36218"
       x="35"
       height="25"
       width="25"
       id="rect4048"
       style="fill:#000088;fill-opacity:1;fill-rule:nonzero;stroke:none" />
  </g>
  <g
     inkscape:groupmode="layer"
     id="g4040"
     inkscape:label="btn_bg"
     style="display:none">
    <rect
       style="fill:#000000;fill-opacity:1;fill-rule:nonzero;stroke:none"
       id="rect4043"
       width="40"
       height="40"
       x="0"
       y="1012.3622"
       inkscape:export-filename="/Users/justin/Documents/justin/iphone/cocos2d_simple_game/designs/img-hd/fire.png"
       inkscape:export-xdpi="180"
       inkscape:export-ydpi="180" />
  </g>
  <g
     style="display:inline"
     inkscape:label="fire_btn"
     id="g3151"
     inkscape:groupmode="layer">
    <rect
       y="1016.3622"
       x="4"
       height="32"
       width="32"
       id="rect3163"
       style="fill:url(#linearGradient4005);fill-opacity:1;fill-rule:nonzero;stroke:none" />
    <rect
       y="1012.3622"
       x="4"
       height="4"
       width="32"
       id="rect3993"
       style="fill:#ffffff;fill-opacity:1;fill-rule:nonzero;stroke:none" />
    <rect
       style="fill:#ffffff;fill-opacity:1;fill-rule:nonzero;stroke:none"
       id="rect3997"
       width="4"
       height="32"
       x="0"
       y="1016.3622" />
    <rect
       y="1016.3622"
       x="36"
       height="32"
       width="4"
       id="rect3999"
       style="fill:#f2f2f2;fill-opacity:1;fill-rule:nonzero;stroke:none" />
    <rect
       style="fill:#f2f2f2;fill-opacity:1;fill-rule:nonzero;stroke:none"
       id="rect4001"
       width="32"
       height="4"
       x="4"
       y="1048.3622" />
    <rect
       style="fill:#ffffff;fill-opacity:1;fill-rule:nonzero;stroke:none"
       id="rect4017"
       width="12"
       height="4"
       x="14"
       y="1028.3622" />
    <rect
       y="1024.3622"
       x="16"
       height="4"
       width="8"
       id="rect4019"
       style="fill:#ffffff;fill-opacity:1;fill-rule:nonzero;stroke:none" />
    <rect
       style="fill:#ffffff;fill-opacity:1;fill-rule:nonzero;stroke:none"
       id="rect4021"
       width="4"
       height="4"
       x="18"
       y="1020.3622" />
    <rect
       y="1036.3622"
       x="18"
       height="8"
       width="4"
       id="rect4023"
       style="fill:#ffffff;fill-opacity:1;fill-rule:nonzero;stroke:none" />
    <rect
       style="fill:#ffffff;fill-opacity:1;fill-rule:nonzero;stroke:none"
       id="rect4034"
       width="16"
       height="4"
       x="12"
       y="1032.3622" />
  </g>
  <g
     inkscape:groupmode="layer"
     id="g4007"
     inkscape:label="left_btn"
     style="display:none">
    <rect
       style="fill:url(#linearGradient3951);fill-opacity:1;fill-rule:nonzero;stroke:none"
       id="rect4013"
       width="32"
       height="32"
       x="4"
       y="1016.3622" />
    <rect
       style="fill:#ffffff;fill-opacity:1;fill-rule:nonzero;stroke:none"
       id="rect3174"
       width="32"
       height="4"
       x="4"
       y="1012.3622" />
    <rect
       y="1016.3622"
       x="0"
       height="32"
       width="4"
       id="rect3945"
       style="fill:#ffffff;fill-opacity:1;fill-rule:nonzero;stroke:none" />
    <rect
       style="fill:#f2f2f2;fill-opacity:1;fill-rule:nonzero;stroke:none"
       id="rect3947"
       width="4"
       height="32"
       x="36"
       y="1016.3622" />
    <rect
       y="1048.3622"
       x="4"
       height="4"
       width="32"
       id="rect3949"
       style="fill:#f2f2f2;fill-opacity:1;fill-rule:nonzero;stroke:none" />
    <g
       id="g3961"
       transform="translate(4,0)">
      <rect
         style="fill:#ffffff;fill-opacity:1;fill-rule:nonzero;stroke:none"
         id="rect3953"
         width="4"
         height="20"
         x="16"
         y="1022.3622" />
      <rect
         y="1026.3622"
         x="12"
         height="12"
         width="4"
         id="rect3955"
         style="fill:#ffffff;fill-opacity:1;fill-rule:nonzero;stroke:none" />
      <rect
         style="fill:#ffffff;fill-opacity:1;fill-rule:nonzero;stroke:none"
         id="rect3957"
         width="4"
         height="4"
         x="8"
         y="1030.3622" />
      <rect
         y="1018.3622"
         x="20"
         height="28"
         width="4"
         id="rect3959"
         style="fill:#ffffff;fill-opacity:1;fill-rule:nonzero;stroke:none" />
    </g>
  </g>
  <g
     style="display:none"
     inkscape:label="right_btn"
     id="g3967"
     inkscape:groupmode="layer">
    <rect
       y="1016.3622"
       x="4"
       height="32"
       width="32"
       id="rect3969"
       style="fill:url(#linearGradient3951);fill-opacity:1;fill-rule:nonzero;stroke:none" />
    <rect
       y="1012.3622"
       x="4"
       height="4"
       width="32"
       id="rect3971"
       style="fill:#ffffff;fill-opacity:1;fill-rule:nonzero;stroke:none" />
    <rect
       style="fill:#ffffff;fill-opacity:1;fill-rule:nonzero;stroke:none"
       id="rect3973"
       width="4"
       height="32"
       x="0"
       y="1016.3622" />
    <rect
       y="1016.3622"
       x="36"
       height="32"
       width="4"
       id="rect3975"
       style="fill:#f2f2f2;fill-opacity:1;fill-rule:nonzero;stroke:none" />
    <rect
       style="fill:#f2f2f2;fill-opacity:1;fill-rule:nonzero;stroke:none"
       id="rect3977"
       width="32"
       height="4"
       x="4"
       y="1048.3622" />
    <rect
       style="fill:#ffffff;fill-opacity:1;fill-rule:nonzero;stroke:none"
       id="rect3981"
       width="4"
       height="20"
       x="16"
       y="1022.3622" />
    <rect
       y="1026.3622"
       x="20"
       height="12"
       width="4"
       id="rect3983"
       style="fill:#ffffff;fill-opacity:1;fill-rule:nonzero;stroke:none" />
    <rect
       style="fill:#ffffff;fill-opacity:1;fill-rule:nonzero;stroke:none"
       id="rect3985"
       width="4"
       height="4"
       x="24"
       y="1030.3622" />
    <rect
       y="1018.3622"
       x="12"
       height="28"
       width="4"
       id="rect3987"
       style="fill:#ffffff;fill-opacity:1;fill-rule:nonzero;stroke:none" />
  </g>
</svg>
